<svg xmlns="http://www.w3.org/2000/svg" viewBox="0 0 64 64" width="50" height="50"><path fill="#efd8be" d="M51,47.584C51.612,47.852,52.289,48,53,48c2.761,0,5-2.239,5-5c0-2.05-2-4-4-2"/><path fill="#8d6c9f" d="M52,49c-1.137,0-1.59-0.327-2.152-0.827c-0.123-0.108-0.263-0.234-0.448-0.373 c-0.441-0.332-0.53-0.959-0.199-1.4s0.96-0.529,1.4-0.199c0.237,0.179,0.418,0.338,0.575,0.478C51.525,46.988,51.538,47,52,47 c2.206,0,4-1.794,4-4c0-0.77-0.427-1.55-0.971-1.775c-0.395-0.162-0.839-0.001-1.322,0.482c-0.391,0.391-1.023,0.391-1.414,0 s-0.391-1.023,0-1.414c1.063-1.062,2.341-1.396,3.502-0.916C57.093,39.915,58,41.405,58,43C58,46.309,55.309,49,52,49z"/><path fill="#efd8be" d="M13,47.584C12.388,47.852,11.711,48,11,48c-2.761,0-5-2.239-5-5c0-2.05,2-4,4-2"/><path fill="#8d6c9f" d="M12,49c-3.309,0-6-2.691-6-6c0-1.595,0.907-3.085,2.205-3.623c1.162-0.479,2.438-0.146,3.502,0.916 c0.391,0.391,0.391,1.023,0,1.414s-1.023,0.391-1.414,0c-0.483-0.483-0.927-0.646-1.322-0.482C8.427,41.45,8,42.23,8,43 c0,2.206,1.794,4,4,4c0.462,0,0.475-0.012,0.824-0.322c0.157-0.14,0.338-0.299,0.575-0.478c0.441-0.33,1.069-0.241,1.4,0.199 c0.331,0.441,0.242,1.068-0.199,1.4c-0.186,0.139-0.325,0.265-0.448,0.373C13.59,48.673,13.137,49,12,49z"/><path fill="#faefde" d="M32 10A23 23.5 0 1 0 32 57A23 23.5 0 1 0 32 10Z"/><path fill="#8d6c9f" d="M32,57C18.767,57,8,46.233,8,33S18.767,9,32,9s24,10.767,24,24S45.233,57,32,57z M32,11 c-12.131,0-22,9.869-22,22s9.869,22,22,22s22-9.869,22-22S44.131,11,32,11z"/><path fill="#8d6c9f" d="M28.516 17.331c-.477 0-.898-.341-.983-.826l-.348-1.97c-.097-.544.267-1.062.811-1.158.542-.103 1.062.267 1.158.811l.348 1.97c.097.544-.267 1.062-.811 1.158C28.632 17.326 28.573 17.331 28.516 17.331zM23.851 18.88c-.367 0-.721-.203-.896-.554l-.893-1.79c-.247-.494-.046-1.095.448-1.341.498-.248 1.096-.045 1.341.448l.893 1.79c.247.494.046 1.095-.448 1.341C24.152 18.847 24 18.88 23.851 18.88zM19.819 21.688c-.266 0-.531-.105-.729-.315l-1.37-1.457c-.378-.402-.358-1.035.044-1.413.399-.378 1.033-.36 1.413.044l1.37 1.457c.378.402.358 1.035-.044 1.413C20.312 21.598 20.065 21.688 19.819 21.688zM16.767 25.539c-.171 0-.344-.044-.502-.136l-1.729-1.005c-.478-.277-.64-.89-.361-1.367.277-.478.891-.638 1.367-.361l1.729 1.005c.478.277.64.89.361 1.367C17.446 25.361 17.111 25.539 16.767 25.539zM14.929 30.097c-.078 0-.157-.009-.236-.028l-1.943-.47c-.536-.13-.866-.67-.736-1.207.13-.536.671-.869 1.207-.736l1.943.47c.536.13.866.67.736 1.207C15.789 29.789 15.38 30.097 14.929 30.097z"/><path fill="#f7a1c8" d="M22.766,48.468c0-0.158,0.013-0.317,0.026-0.475C23.03,45.671,24.612,44,27,44 c0.881,0,2.299,0.57,3,1c1.344,0.824,2.656,0.824,4,0c0.701-0.43,2.119-1,3-1c2.388,0,3.97,1.671,4.208,3.993 c0.013,0.158,0.026,0.317,0.026,0.475s-0.013,0.317-0.026,0.475c-0.237,4.881-4.261,8.1-9.208,8.1s-8.97-3.219-9.208-8.1 C22.779,48.785,22.766,48.626,22.766,48.468z"/><path fill="#8d6c9f" d="M32,58c-6.438,0-10-5.321-10-9c0-3.532,2.056-6,5-6c1.303,0,2.233,0.62,3.055,1.168 C30.725,44.614,31.303,45,32,45s1.275-0.386,1.945-0.832C34.767,43.62,35.697,43,37,43c2.944,0,5,2.468,5,6 C42,52.679,38.438,58,32,58z M27,45c-1.822,0-3,1.57-3,4c0,2.513,2.674,7,8,7s8-4.487,8-7c0-2.43-1.178-4-3-4 c-0.697,0-1.275,0.386-1.945,0.832C34.233,46.38,33.303,47,32,47s-2.233-0.62-3.055-1.168C28.275,45.386,27.697,45,27,45z"/><path fill="#8d6c9f" d="M32,62c-3.921,0-7.111-3.19-7.111-7.111c0-2.257,1.036-4.33,2.844-5.688 c0.441-0.33,1.067-0.242,1.4,0.199c0.331,0.441,0.242,1.068-0.199,1.4c-1.3,0.977-2.045,2.467-2.045,4.089 C26.889,57.707,29.182,60,32,60s5.111-2.293,5.111-5.111c0-1.622-0.745-3.112-2.045-4.089c-0.441-0.332-0.53-0.959-0.199-1.4 c0.333-0.442,0.96-0.53,1.4-0.199c1.808,1.358,2.844,3.432,2.844,5.688C39.111,58.81,35.921,62,32,62z"/><g><path fill="#8d6c9f" d="M32,10.872c-0.553,0-1-0.447-1-1C31,5.395,34.468,1,38,1c0.553,0,1,0.447,1,1s-0.447,1-1,1 c-2.43,0-5,3.532-5,6.872C33,10.425,32.553,10.872,32,10.872z"/></g><g><path fill="#8d6c9f" d="M32,10.872c-0.553,0-1-0.447-1-1c0-2.272-0.693-4.448-2.005-6.292 c-0.32-0.45-0.215-1.075,0.234-1.395c0.451-0.319,1.076-0.214,1.395,0.234C32.179,4.604,33,7.182,33,9.872 C33,10.425,32.553,10.872,32,10.872z"/></g><g><path fill="#8d6c9f" d="M25,40c-0.553,0-1-0.447-1-1c0-1.654-1.346-3-3-3s-3,1.346-3,3c0,0.553-0.447,1-1,1s-1-0.447-1-1 c0-2.757,2.243-5,5-5s5,2.243,5,5C26,39.553,25.553,40,25,40z"/></g><g><path fill="#8d6c9f" d="M47,40c-0.553,0-1-0.447-1-1c0-1.654-1.346-3-3-3s-3,1.346-3,3c0,0.553-0.447,1-1,1s-1-0.447-1-1 c0-2.757,2.243-5,5-5s5,2.243,5,5C48,39.553,47.553,40,47,40z"/></g></svg>