<svg xmlns="http://www.w3.org/2000/svg" viewBox="0 0 64 64" width="50" height="50"><path fill="#ffeb9b" d="M16,21v-2c0-1.543,2-2,2-2S21.608,3,33.032,3C33.032,3,52,3.108,52,18.086c0,2.766,0,5.82-1.355,9.6 c0,0-0.333,1.166-0.765,2.743"/><path fill="#f9dd8f" d="M34.648,4.863L34.648,4.863c-0.335,1.654,0.712,3.292,2.365,3.631 c1.193,0.245,2.533,0.61,3.846,1.155C46.363,11.936,47,15.559,47,18.086c0,0.881,0,1.745-0.044,2.622 c-0.089,1.764,1.281,3.258,3.048,3.277h0c0.944,0.01,1.75-0.704,1.844-1.644C52,20.823,52,19.421,52,18.086 C52,7.409,42.362,4.288,36.826,3.376C35.815,3.21,34.852,3.86,34.648,4.863z"/><path fill="#ffeb9b" d="M49,62H22v-5l-8-24l28-8l8,4l-2,8l0,0c2.81,2.81,1.776,7.584-1.945,8.979L46,46L49,62z"/><circle cx="19" cy="27" r="6" fill="#fff8ee"/><circle cx="31.5" cy="28.5" r="7.5" fill="#fff8ee"/><path fill="#8d6c9f" d="M19.5,26c-0.828,0-1.5,0.672-1.5,1.5s0.672,1.5,1.5,1.5s1.5-0.672,1.5-1.5S20.328,26,19.5,26z"/><path fill="#8d6c9f" d="M15.199,32.838C13.196,31.534,12,29.354,12,27.006C12,23.143,15.219,20,19.176,20 c3.032,0,5.751,1.874,6.764,4.663l-1.879,0.683C23.333,23.344,21.37,22,19.176,22C16.322,22,14,24.246,14,27.006 c0,1.669,0.856,3.223,2.291,4.156L15.199,32.838z"/><path fill="#f9dd8f" d="M14.791,37.952c0,0-1.149,0.961-2.081,3.448c-0.36,0.961-2.71,3.344-2.71,5.486 c0,0,2.594,0.906,5,4.114c3,4,8.032,7,12,7c7.536,0,9-9,9-9l-0.447-0.984c-2.774-6.103-8.851-10.029-15.555-10.048L14.791,37.952z"/><path fill="#8d6c9f" d="M31.5,37c-4.687,0-8.5-3.813-8.5-8.5s3.813-8.5,8.5-8.5s8.5,3.813,8.5,8.5S36.187,37,31.5,37z M31.5,22c-3.584,0-6.5,2.916-6.5,6.5s2.916,6.5,6.5,6.5s6.5-2.916,6.5-6.5S35.084,22,31.5,22z"/><path fill="#8d6c9f" d="M32.5,28c-0.828,0-1.5,0.672-1.5,1.5s0.672,1.5,1.5,1.5s1.5-0.672,1.5-1.5S33.328,28,32.5,28z"/><path fill="#8d6c9f" d="M19.483,52c-8.075,0-10.297-4.495-10.387-4.687C9.033,47.18,9,47.034,9,46.886 c0-1.786,1.213-3.521,2.1-4.788c0.283-0.406,0.605-0.866,0.674-1.049c0.995-2.656,2.237-3.748,2.376-3.864 c0.426-0.355,1.056-0.297,1.408,0.125c0.353,0.421,0.299,1.047-0.117,1.402c-0.033,0.03-0.995,0.905-1.794,3.038 c-0.157,0.419-0.489,0.894-0.908,1.493c-0.684,0.978-1.603,2.292-1.725,3.401C11.488,47.383,13.587,50,19.483,50 c6.929,0,8.912-1.193,8.932-1.205c0.459-0.288,1.074-0.164,1.375,0.287c0.3,0.451,0.196,1.052-0.247,1.364 C29.317,50.605,27.116,52,19.483,52z M49.881,31.429c-0.088,0-0.177-0.012-0.265-0.036c-0.533-0.146-0.847-0.696-0.701-1.229 c0.434-1.583,0.77-2.754,0.77-2.754C51,23.732,51,20.862,51,18.086c0-5.746-2.964-9.855-8.808-12.212 C37.679,4.054,33.072,4,33.025,4C22.505,4,19.003,17.117,18.969,17.25c-0.094,0.362-0.382,0.642-0.746,0.726 C18.216,17.977,17,18.29,17,19v2c0,0.552-0.447,1-1,1s-1-0.448-1-1v-2c0-1.526,1.192-2.4,2.188-2.791 c0.354-1.149,1.334-3.943,3.211-6.763C23.643,4.575,28.011,2,33.032,2C33.237,2.001,53,2.297,53,18.086 c0,2.809,0,5.993-1.412,9.935l0,0c0.002,0-0.324,1.142-0.743,2.672C50.723,31.137,50.32,31.429,49.881,31.429z"/><path fill="#8d6c9f" d="M47.985,20.917c-0.008,0-0.016,0-0.024,0l-2-0.048c-0.552-0.013-0.988-0.472-0.976-1.023 c0.014-0.544,0.459-0.976,1-0.976c0.008,0,0.016,0,0.024,0l2,0.048c0.552,0.013,0.988,0.472,0.976,1.023 C48.972,20.485,48.526,20.917,47.985,20.917z"/><path fill="#8d6c9f" d="M45.403,15.841c-0.387,0-0.754-0.225-0.918-0.601c-0.221-0.506,0.012-1.096,0.518-1.316 l1.834-0.799c0.509-0.222,1.096,0.012,1.316,0.518c0.221,0.506-0.012,1.096-0.518,1.316l-1.834,0.799 C45.672,15.814,45.536,15.841,45.403,15.841z"/><path fill="#8d6c9f" d="M42.068,12.358c-0.17,0-0.342-0.043-0.499-0.134c-0.479-0.276-0.643-0.888-0.366-1.366l1-1.732 c0.276-0.479,0.889-0.643,1.366-0.366c0.479,0.276,0.643,0.888,0.366,1.366l-1,1.732C42.75,12.179,42.414,12.358,42.068,12.358z"/><path fill="#8d6c9f" d="M37.176,10.553c-0.071,0-0.145-0.007-0.218-0.023c-0.539-0.12-0.879-0.654-0.76-1.193l0.433-1.953 c0.119-0.539,0.649-0.879,1.193-0.76c0.539,0.12,0.879,0.654,0.76,1.193l-0.433,1.953C38.048,10.235,37.635,10.553,37.176,10.553 z"/><g><path fill="#8d6c9f" d="M48.999,63c-0.007,0-0.015,0-0.021,0H21.991c-0.266,0-0.521-0.105-0.708-0.293 s-0.293-0.443-0.292-0.709l0.009-4C21.001,57.446,21.449,57,22,57c0.001,0,0.001,0,0.002,0c0.553,0.001,0.999,0.45,0.998,1.002 L22.993,61h24.729c-1.21-5.238-2.724-15.348-2.793-15.812c-0.043-0.288,0.042-0.58,0.231-0.8c0.19-0.22,0.467-0.347,0.758-0.347 C48.113,44.04,49,42.601,49,42c0-0.902-0.195-3-2-3c-1.432,0-2.083,1.399-2.089,1.413c-0.229,0.503-0.82,0.728-1.324,0.498 c-0.503-0.228-0.726-0.821-0.498-1.324C43.138,39.481,44.294,37,47,37c2.43,0,4,1.962,4,5c0,1.486-1.359,3.475-3.933,3.94 c0.472,3.063,1.889,12.018,2.893,15.78c0.015,0.049,0.025,0.099,0.031,0.151c0.016,0.116,0.01,0.231-0.014,0.341 c-0.031,0.147-0.096,0.282-0.184,0.397c-0.088,0.115-0.201,0.211-0.335,0.28c-0.102,0.052-0.213,0.088-0.33,0.103 C49.085,62.998,49.042,63,48.999,63z M53,37c-0.553,0-1-0.448-1-1v-5.234l-2.132,3.73c-0.225,0.393-0.684,0.588-1.125,0.47 C48.305,34.85,48,34.454,48,34v-4.234l-2.132,3.73c-0.274,0.479-0.886,0.645-1.364,0.372c-0.479-0.274-0.646-0.885-0.372-1.364l4-7 c0.224-0.394,0.683-0.588,1.125-0.47C49.695,25.15,50,25.546,50,26v4.234l2.132-3.73c0.225-0.394,0.681-0.59,1.125-0.47 C53.695,26.15,54,26.546,54,27v9C54,36.552,53.553,37,53,37z"/></g><g><path fill="#8d6c9f" d="M26.357,59c-6.563,0-8.24-2.817-8.951-4.12c-2.518-1.188-3.014-3.514-3.08-4.83l1.998-0.101 c0.08,1.592,0.81,2.676,2.168,3.223l0.323,0.13l0.301,0.536c0.6,1.105,1.716,3.162,7.241,3.162c8.513,0,8.61-6.522,8.61-6.8 l0.01-0.143c0.025-0.193,0.577-4.891-5-8.09c-4.071-2.337-10.85-1.971-10.919-1.969L17,40c-2.504,0-4-2.415-4-4.75 c0-2.343,1.988-4.25,4.433-4.25h7.187v2h-7.187C16.091,33,15,34.009,15,35.25c0,1.323,0.765,2.75,2,2.75h2 c0.241-0.016,7.38-0.405,11.974,2.233c6.511,3.735,6.071,9.365,5.991,10.049C36.927,51.175,36.299,59,26.357,59z"/></g><g><path fill="#8d6c9f" d="M48.001,39c-0.08,0-0.162-0.009-0.243-0.03c-0.536-0.134-0.862-0.677-0.728-1.213l1-4 c0.134-0.536,0.676-0.863,1.212-0.728c0.536,0.134,0.862,0.677,0.728,1.213l-1,4C48.856,38.697,48.449,39,48.001,39z"/></g></svg>