<svg xmlns="http://www.w3.org/2000/svg" viewBox="0 0 64 64" width="50" height="50"><path fill="#b5c4e0" d="M43,52.384l6.922,3.116l4.404-9.737c1.725-3.814,0.025-8.301-3.8-10.022l0,0L43,52.384z"/><path fill="#8d6c9f" d="M50.422,56.822l-8.746-3.938l8.35-18.465l0.91,0.41c2.096,0.943,3.697,2.645,4.509,4.791 c0.81,2.141,0.736,4.469-0.208,6.556L50.422,56.822z M44.324,51.884l5.099,2.295l3.993-8.827c0.723-1.599,0.78-3.383,0.159-5.024 c-0.503-1.331-1.403-2.438-2.579-3.197L44.324,51.884z"/><path fill="#b5c4e0" d="M53.079,34.806h-3.312c-1.026,0-1.858-0.837-1.858-1.869v-8.422c0-1.033,0.832-1.87,1.858-1.87 h3.312c1.026,0,1.858,0.837,1.858,1.869v8.422C54.937,33.969,54.105,34.806,53.079,34.806z"/><path fill="#8d6c9f" d="M53.079,35.807h-3.312c-1.576,0-2.858-1.287-2.858-2.869v-8.422c0-1.583,1.282-2.871,2.858-2.871 h3.312c1.576,0,2.858,1.287,2.858,2.869v8.422C55.937,34.519,54.655,35.807,53.079,35.807z M49.768,23.645 c-0.473,0-0.858,0.391-0.858,0.871v8.422c0,0.479,0.385,0.869,0.858,0.869h3.312c0.473,0,0.858-0.391,0.858-0.871v-8.422 c0-0.479-0.385-0.869-0.858-0.869H49.768z"/><path fill="#b5c4e0" d="M21,52.42l-6.922,3.123l-4.404-9.758c-1.725-3.822-0.025-8.319,3.8-10.044l0,0L21,52.42z"/><path fill="#8d6c9f" d="M13.578,56.866L8.762,46.197c-0.944-2.092-1.017-4.427-0.205-6.573 c0.812-2.147,2.412-3.849,4.505-4.793l0.912-0.411l8.348,18.502L13.578,56.866z M13.004,37.132 c-1.174,0.759-2.073,1.868-2.576,3.199c-0.623,1.647-0.567,3.438,0.157,5.043l3.992,8.846l5.1-2.3L13.004,37.132z"/><path fill="#b5c4e0" d="M14.247,34.806h-3.312c-1.026,0-1.858-0.837-1.858-1.869v-8.422c0-1.033,0.832-1.87,1.858-1.87 h3.312c1.026,0,1.858,0.837,1.858,1.869v8.422C16.105,33.969,15.273,34.806,14.247,34.806z"/><path fill="#8d6c9f" d="M14.247,35.807h-3.312c-1.576,0-2.858-1.287-2.858-2.869v-8.422c0-1.583,1.282-2.871,2.858-2.871 h3.312c1.576,0,2.858,1.287,2.858,2.869v8.422C17.105,34.519,15.823,35.807,14.247,35.807z M10.935,23.645 c-0.473,0-0.858,0.391-0.858,0.871v8.422c0,0.479,0.385,0.869,0.858,0.869h3.312c0.473,0,0.858-0.391,0.858-0.871v-8.422 c0-0.479-0.385-0.869-0.858-0.869H10.935z"/><path fill="#ced9ed" d="M51.385,21.71v10.096c0,2.18-0.464,4.335-1.361,6.317l-4.002,8.845H17.96l-3.992-8.852 c-0.891-1.977-1.353-4.125-1.353-6.299V21.71c0-10.337,8.058-18.71,18-18.71h2.769C43.326,3,51.385,11.373,51.385,21.71z"/><path fill="#e2e9f7" d="M31.824,3l-1.208,0c-6.492,0-12.181,3.57-15.347,8.927c-0.485,0.821-0.112,1.891,0.762,2.252l0,0 c1.499,0.619,3.259,0.207,4.246-1.093c2.298-3.025,5.775-5.022,9.694-5.221c0.027-0.001,0.1-0.003,0.208-0.004 c1.779-0.02,3.212-1.486,3.206-3.29C33.382,3.703,32.68,3,31.824,3z"/><path fill="#8d6c9f" d="M45.743,47.968H18.239c-0.396,0-0.754-0.233-0.915-0.596l-3.913-8.853 C12.475,36.401,12,34.146,12,31.816V21.709C12,10.842,20.363,2,30.643,2h2.714C43.637,2,52,10.842,52,21.709v10.097 c0,2.336-0.478,4.598-1.42,6.722l-3.923,8.845C46.497,47.735,46.139,47.968,45.743,47.968z M18.89,45.968h26.203l3.659-8.25 C49.568,35.876,50,33.832,50,31.806V21.709C50,11.944,42.534,4,33.357,4h-2.714C21.466,4,14,11.944,14,21.709v10.107 c0,2.049,0.417,4.032,1.241,5.895L18.89,45.968z"/><path fill="#8d6c9f" d="M21.513,14.078c-0.222,0-0.445-0.078-0.627-0.237l-1.446-1.271 c-0.399-0.351-0.442-0.964-0.096-1.368c0.346-0.405,0.95-0.447,1.35-0.097l1.446,1.271c0.399,0.351,0.442,0.964,0.096,1.368 C22.047,13.964,21.78,14.078,21.513,14.078z"/><path fill="#8d6c9f" d="M25.109,11.18c-0.344,0-0.677-0.189-0.849-0.519l-0.889-1.717 c-0.245-0.474-0.065-1.061,0.403-1.31c0.47-0.249,1.047-0.065,1.292,0.408l0.889,1.717c0.245,0.474,0.065,1.061-0.403,1.31 C25.41,11.144,25.258,11.18,25.109,11.18z"/><path fill="#8d6c9f" d="M29.491,9.849c-0.488,0-0.905-0.376-0.952-0.878l-0.18-1.931 c-0.05-0.533,0.336-1.006,0.863-1.057c0.529-0.049,0.993,0.341,1.043,0.874l0.18,1.931c0.05,0.533-0.336,1.006-0.863,1.057 C29.552,9.847,29.521,9.849,29.491,9.849z"/><path fill="#8d6c9f" d="M45.345,35.838c-0.885,0-1.766-0.223-2.594-0.668l-8.328-5.288c-1.46-0.804-3.207-0.839-4.741-0.063 c-0.495,0.249-1.095,0.051-1.344-0.441c-0.249-0.493-0.052-1.094,0.441-1.344c2.134-1.078,4.563-1.032,6.663,0.128l8.318,5.282 c0.907,0.486,1.991,0.529,2.988,0.087c0.505-0.225,1.096,0.004,1.319,0.509c0.224,0.505-0.004,1.096-0.509,1.319 C46.839,35.679,46.09,35.838,45.345,35.838z"/><path fill="#8d6c9f" d="M22.77,33.97c-0.333,0-0.658-0.166-0.848-0.468c-0.294-0.467-0.153-1.085,0.314-1.379l3.03-1.905 c0.469-0.294,1.086-0.152,1.379,0.314c0.294,0.467,0.153,1.085-0.314,1.379l-3.03,1.905C23.136,33.92,22.952,33.97,22.77,33.97z"/><path fill="#8d6c9f" d="M18.637,35.777c-0.76,0-1.509-0.164-2.227-0.487c-0.503-0.227-0.728-0.819-0.5-1.323 c0.228-0.504,0.818-0.727,1.323-0.5c0.565,0.255,1.16,0.354,1.742,0.294c0.556-0.063,1.041,0.343,1.098,0.892 c0.057,0.55-0.342,1.041-0.892,1.098C18.999,35.768,18.818,35.777,18.637,35.777z"/><path fill="#c4939c" d="M27.465,35.78L16.612,46.453l15.383-0.235l15.238,0.101L36.524,35.778 C33.907,33.202,30.083,33.202,27.465,35.78z"/><path fill="#8d6c9f" d="M14.131,47.492l12.633-12.425c2.983-2.937,7.48-2.938,10.462-0.001l12.466,12.27l-17.703-0.117 L14.131,47.492z M31.996,34.854c-1.36,0-2.72,0.546-3.83,1.639l0,0l-9.072,8.923l12.886-0.197l12.795,0.085l-8.953-8.812 C34.714,35.399,33.355,34.854,31.996,34.854z"/><path fill="#8d6c9f" d="M16.457,24.516c-0.342,1.245-0.076,2.599,0.602,4.023c0.447,0.941,1.42,1.594,2.477,1.59 c3.088-0.011,5.933-1.938,8.653-4.853c0.269-0.289,0.055-0.76-0.344-0.76L16.457,24.516"/><path fill="#8d6c9f" d="M47.543,24.516c0.342,1.245,0.076,2.599-0.602,4.023c-0.447,0.941-1.42,1.594-2.477,1.59 c-3.088-0.011-5.933-1.938-8.653-4.853c-0.269-0.289-0.055-0.76,0.344-0.76L47.543,24.516"/><path fill="#ced9ed" d="M51.136,48.568L34.749,41.22c-0.87-0.391-1.806-0.585-2.742-0.585c-0.936,0-1.871,0.195-2.742,0.585 l-16.386,7.348c-1.205,0.657-1.955,1.931-1.955,3.317c0,3.586,2.132,6.651,5.167,8.03c4.672,2.12,9.576,0.708,10.667-0.638 c0.62-0.765,1.743-0.943,2.74-0.943h2.51h2.51c0.997,0,2.12,0.177,2.74,0.943c1.091,1.346,5.995,2.759,10.667,0.638 c3.035-1.377,5.167-4.444,5.167-8.03C53.091,50.499,52.34,49.226,51.136,48.568z"/><path fill="#8d6c9f" d="M42.838,61.993c-2.933,0-5.428-0.939-6.358-2.086c-0.303-0.375-0.981-0.573-1.962-0.573h-5.021 c-0.98,0-1.659,0.198-1.962,0.573c-1.488,1.834-6.976,3.134-11.858,0.919c-3.496-1.588-5.754-5.098-5.754-8.941 c0-1.753,0.949-3.361,2.477-4.194l16.456-7.383c1.996-0.894,4.314-0.892,6.303,0l16.456,7.383c1.527,0.833,2.476,2.44,2.476,4.194 c0,3.845-2.258,7.354-5.754,8.941C46.508,61.656,44.594,61.993,42.838,61.993z M29.497,57.333h5.021 c1.628,0,2.812,0.442,3.517,1.315c0.708,0.874,5.068,2.357,9.476,0.356c2.782-1.263,4.58-4.057,4.58-7.12 c0-1.009-0.537-1.934-1.403-2.421L34.34,42.132c-1.471-0.659-3.189-0.661-4.667,0l-16.386,7.349 c-0.815,0.448-1.365,1.382-1.365,2.404c0,3.061,1.798,5.855,4.581,7.12c4.406,1.999,8.767,0.517,9.477-0.357 C26.687,57.775,27.87,57.333,29.497,57.333z"/><path fill="#b5c4e0" d="M48.619,54.933c-1.588-2.37-4.276-2.314-6.611-1.637c-2.765,0.803-5.621-0.932-6.745-3.922 C34.951,48.54,34.231,48,33.434,48h-1.469h-0.083h-1.469c-0.798,0-1.517,0.54-1.83,1.374c-1.124,2.99-3.98,4.725-6.745,3.922 c-2.334-0.677-5.022-0.733-6.611,1.637c-0.414,0.617-0.574,1.348-0.517,2.14c0.106,1.492,1.093,2.745,2.339,3.218 c4.03,1.528,7.961,0.312,9.307-1.046c0.736-0.743,2.068-1.441,3.052-1.441h2.558v-0.002h2.475c0.984,0,2.316,0.699,3.052,1.441 c1.388,1.4,5.528,2.652,9.688,0.894c0.864-0.366,1.551-1.164,1.809-2.172C49.276,56.836,49.185,55.776,48.619,54.933z"/><path fill="#8d6c9f" d="M42.938,62.003c-2.789,0-5.107-0.998-6.157-2.057c-0.604-0.61-1.699-1.145-2.342-1.145l-5.032,0.001 c-0.643,0-1.737,0.535-2.342,1.146c-1.514,1.526-5.856,2.989-10.372,1.277c-1.655-0.628-2.853-2.269-2.982-4.083 c-0.075-1.046,0.155-1.977,0.684-2.767c1.095-1.635,3.325-3.317,7.72-2.041c2.199,0.642,4.58-0.785,5.53-3.313 C28.108,47.794,29.194,47,30.413,47h3.022c1.219,0,2.305,0.794,2.765,2.023c0.95,2.527,3.328,3.953,5.53,3.312 c4.394-1.276,6.624,0.405,7.72,2.04l0,0c0.705,1.051,0.88,2.377,0.508,3.836c-0.329,1.289-1.222,2.352-2.387,2.846 C45.974,61.732,44.392,62.003,42.938,62.003z M34.439,56.802c1.34,0,2.907,0.874,3.763,1.737c1.016,1.025,4.692,2.323,8.589,0.677 c0.594-0.251,1.053-0.812,1.229-1.499c0.231-0.905,0.153-1.655-0.231-2.228v0c-1.052-1.571-2.902-1.986-5.501-1.233 c-3.22,0.934-6.639-1.015-7.96-4.53C34.162,49.285,33.812,49,33.435,49h-3.022c-0.377,0-0.729,0.285-0.894,0.726 c-1.322,3.517-4.746,5.463-7.96,4.53c-2.598-0.753-4.448-0.339-5.501,1.233c-0.275,0.411-0.393,0.919-0.35,1.511 c0.075,1.052,0.756,1.998,1.696,2.355c3.771,1.43,7.283,0.151,8.242-0.815c0.856-0.863,2.423-1.737,3.762-1.737L34.439,56.802z"/><g><rect width="39.357" height="1.871" x="12.329" y="19.839" fill="#8d6c9f"/></g><g><ellipse cx="20.542" cy="57.246" fill="#8d6c9f" rx="2.108" ry="1.427"/></g><g><ellipse cx="43.396" cy="57.246" fill="#8d6c9f" rx="2.108" ry="1.427"/></g><g><ellipse cx="32" cy="56" fill="#8d6c9f" rx="3" ry="5"/></g><g><rect width="2" height="5.819" x="28.052" y="34.816" fill="#8d6c9f"/></g><g><rect width="2" height="5.819" x="33.793" y="34.816" fill="#8d6c9f"/></g><g><rect width="2" height="4.849" x="23.268" y="38.695" fill="#8d6c9f"/></g><g><rect width="2" height="4.849" x="38.578" y="38.695" fill="#8d6c9f"/></g></svg>