<svg xmlns="http://www.w3.org/2000/svg" viewBox="0 0 64 64" width="50" height="50"><path fill="#fff8ee" d="M55.955,36.875c-5.199-5.044-6.679-9.142-7.01-9.902c-0.089-0.951-0.411-3.314-1.464-4.352 c-0.763-0.755-3.601-3.182-5.019-4.352v-6.781c0-0.744-0.767-1.261-1.445-0.955c-1.615,0.73-4.333,2.346-6.824,5.669l-2.067-4.135 C19.721,14.135,7.318,26.539,5.25,38.943c0,0,2.067,10.336,24.808,20.673c0,0,2.067-2.429,2.067-7.052 C32.125,49.207,29.16,43.94,34,41c2,1,5,2,8,2c2,1,2.879,2,4,2c0,0,2,4.279,6.217,4.279c3.808,0,5.642-1.193,5.642-1.193 s1.1-5.226,1.141-5.712C59,40.289,58.793,38.349,55.955,36.875z"/><path fill="#faefde" d="M27.364,52.741c-4.905-2.573-8.952-5.308-12.027-8.129c-1.948-1.788-4.919-1.719-6.809,0.077 c3.152,3.882,9.269,9.267,20.993,14.675C30.709,56.942,29.768,54.002,27.364,52.741z"/><path fill="#f7a1c8" d="M44 18L60 6 48 22M9 45c0-15 18-29 25-29 0 0 5.076-6 8-6 2 0-2 8 2 8 1-3 5-9 5-9-2-1-7-4-15-4C22 5 4 19 4 32 4 40 9 45 9 45z"/><path fill="#8d6c9f" d="M30.058,60.616c-0.14,0-0.28-0.029-0.414-0.09C7.622,50.517,3,41.12,3,35v-4 C3,20.339,19.627,4,34,4c8.176,0,12.308,2.003,15.555,4.168c0.42,0.28,0.565,0.828,0.34,1.279 c-1.001,2.002-4.862,8.762-5.026,9.049c-0.274,0.479-0.885,0.646-1.364,0.372c-0.479-0.274-0.646-0.885-0.372-1.364 c0.035-0.062,3.187-5.58,4.561-8.157C44.809,7.552,41.017,6,34,6C20.835,6,5,21.355,5,31v4c0,5.465,4.31,13.925,24.702,23.353 c0.539-0.928,1.423-2.891,1.423-5.789c0-0.872-0.259-1.781-0.532-2.745c-0.673-2.368-1.511-5.316,1.7-8.526 c0.391-0.391,1.023-0.391,1.414,0s0.391,1.023,0,1.414c-2.38,2.38-1.829,4.32-1.19,6.566c0.299,1.052,0.608,2.141,0.608,3.291 c0,4.934-2.212,7.589-2.306,7.7C30.625,60.493,30.344,60.616,30.058,60.616z"/><path fill="#8d6c9f" d="M52,50c-3.916,0-6.118-3.212-6.724-4.244l-3.515-1.757C33.765,43.934,29,40.581,29,35 c0-0.552,0.447-1,1-1s1,0.448,1,1c0,6.495,8.42,7,11,7c0.155,0,0.309,0.036,0.447,0.105l4,2c0.193,0.097,0.351,0.254,0.447,0.447 C46.91,44.584,48.684,48,52,48c3.642,0,5.461-1.721,5.996-2.338c-0.011-0.909-0.029-2.936,0.008-3.371 c-0.004-1.614-0.123-2.901-1.665-4.014c-0.772-0.557-1.586-1.176-2.295-1.92c-0.576-0.605-1.132-1.23-1.652-1.858 c-2.127-2.565-3.727-5.723-4.753-9.385c-0.232-0.831-0.538-1.463-0.859-1.78c-0.171-0.169-0.433-0.478-0.757-0.866 C45.229,21.52,43.123,19,42,19c-0.553,0-1-0.448-1-1c0-2.622,0.712-5.891,0.953-6.921c-0.154-0.102-0.432-0.191-0.562-0.16 c-1.617,0.733-4.331,2.667-6.592,5.681c-0.33,0.442-0.957,0.532-1.399,0.2c-0.442-0.332-0.532-0.958-0.2-1.4 c2.484-3.313,5.445-5.433,7.388-6.311c0.801-0.361,1.799-0.108,2.434,0.301C43.644,9.792,44,10.378,44,11 c0,0.082-0.01,0.163-0.03,0.242c-0.009,0.036-0.8,3.234-0.946,5.947c1.551,0.557,3.081,2.259,4.533,3.996 c0.271,0.324,0.485,0.584,0.628,0.725c0.581,0.573,1.045,1.47,1.38,2.663c0.95,3.391,2.42,6.3,4.366,8.648 c0.492,0.593,1.018,1.184,1.562,1.756c0.596,0.626,1.321,1.176,2.016,1.677C59.808,38.313,60,40.39,60,42.375 c-0.029,0.386-0.017,2.329,0,3.612c0.003,0.202-0.056,0.4-0.168,0.568C59.738,46.695,57.473,50,52,50z"/><path fill="#8d6c9f" d="M38 19c-.553 0-1-.448-1-1 0-3.233 2.51-6.972 4.588-7.911.503-.228 1.096-.004 1.323.499.228.503.004 1.096-.499 1.323C41.214 12.453 39 15.329 39 18 39 18.552 38.553 19 38 19zM9.001 46c-.025 0-.052-.001-.078-.003-.55-.042-.962-.523-.92-1.074 1.062-13.817 13.134-27.793 25.833-29.91.542-.09 1.061.277 1.15.822.091.545-.277 1.06-.822 1.151C22.497 18.931 10.979 32.32 9.997 45.077 9.957 45.601 9.519 46 9.001 46zM10.06 30.469c-.162 0-.326-.04-.479-.123l-1.755-.96c-.485-.265-.663-.873-.397-1.357.265-.484.871-.662 1.356-.397l1.755.96c.485.265.663.873.397 1.357C10.756 30.281 10.413 30.469 10.06 30.469zM12.699 26.381c-.209 0-.42-.065-.6-.2l-1.6-1.201c-.441-.332-.53-.958-.199-1.4s.96-.529 1.4-.199l1.6 1.201c.441.332.53.958.199 1.4C13.304 26.244 13.003 26.381 12.699 26.381zM15.883 22.677c-.251 0-.502-.094-.696-.283l-1.435-1.393c-.396-.385-.406-1.018-.021-1.414.385-.396 1.018-.406 1.414-.021l1.435 1.393c.396.385.406 1.018.021 1.414C16.404 22.576 16.144 22.677 15.883 22.677zM19.497 19.383c-.292 0-.581-.127-.778-.371l-1.258-1.556c-.348-.43-.281-1.059.148-1.407.431-.347 1.06-.279 1.406.149l1.258 1.556c.348.43.281 1.059-.148 1.407C19.939 19.311 19.718 19.383 19.497 19.383zM23.478 16.555c-.335 0-.662-.168-.852-.474l-1.052-1.701c-.29-.47-.146-1.086.325-1.376.467-.29 1.084-.146 1.376.325l1.052 1.701c.29.47.146 1.086-.325 1.376C23.839 16.506 23.657 16.555 23.478 16.555zM27.779 14.284c-.387 0-.755-.226-.918-.603l-.796-1.835c-.22-.507.013-1.096.52-1.315.504-.22 1.095.013 1.314.52l.796 1.835c.22.507-.013 1.096-.52 1.315C28.047 14.257 27.912 14.284 27.779 14.284zM32.354 12.766c-.456 0-.867-.313-.974-.776l-.447-1.95c-.124-.539.213-1.075.751-1.198.535-.123 1.074.213 1.198.751l.447 1.95c.124.539-.213 1.075-.751 1.198C32.503 12.757 32.428 12.766 32.354 12.766z"/><g><path fill="#8d6c9f" d="M43 28A2 2 0 1 0 43 32A2 2 0 1 0 43 28Z"/></g><g><path fill="#8d6c9f" d="M48.8,22.6l-1.6-1.2L55,11l-10.4,7.8L43.4,17.2l16-12c0.397-0.298,0.955-0.259,1.307,0.093 S61.099,6.202,60.8,6.6L48.8,22.6z"/></g></svg>